ISO-10303-21;
HEADER;
FILE_DESCRIPTION(('FreeCAD Model'),'2;1');
FILE_NAME(
  '/Users/yiangosyiangou/Documents/PCB Design/kicad_fork/Crystal_SMD_3225-4Pin_3.2x2.5mm.step'
  ,'2018-07-28T16:39:19',('kicad StepUp'),('ksu MCAD'),
  'Open CASCADE STEP processor 7.2','FreeCAD','Unknown');
FILE_SCHEMA(('AUTOMOTIVE_DESIGN_CC2 { 1 2 10303 214 -1 1 5 4 }'));
ENDSEC;
DATA;
#1=APPLICATION_PROTOCOL_DEFINITION('committee draft','automotive_design',1997,#2);
#2=APPLICATION_CONTEXT('core data for automotive mechanical design processes');
#3=SHAPE_DEFINITION_REPRESENTATION(#4,#10);
#4=PRODUCT_DEFINITION_SHAPE('','',#5);
#5=PRODUCT_DEFINITION('design','',#6,#9);
#6=PRODUCT_DEFINITION_FORMATION('','',#7);
#7=PRODUCT('Crystal_SMD_3225-4Pin_3.2x2.5mm','Crystal_SMD_3225-4Pin_3.2x2.5mm','',(#8));
#8=MECHANICAL_CONTEXT('',#2,'mechanical');
#9=PRODUCT_DEFINITION_CONTEXT('part definition',#2,'design');
#10=ADVANCED_BREP_SHAPE_REPRESENTATION('',(#11,#15),#590);
#11=AXIS2_PLACEMENT_3D('',#12,#13,#14);
#12=CARTESIAN_POINT('',(0.,0.,0.));
#13=DIRECTION('',(0.,0.,1.));
#14=DIRECTION('',(1.,0.,-0.));
#15=MANIFOLD_SOLID_BREP('',#16);
#16=CLOSED_SHELL('',(#17,#78,#97,#114,#128,#144,#158,#174,#188,#200,#256,#277,#295,#313,#329,#345,#363,#381,#392,#448,#467,#484,#501,#516,#531,#548,#565,#576));
#17=ADVANCED_FACE('',(#18),#75,.T.);
#18=FACE_BOUND('',#19,.T.);
#19=EDGE_LOOP('',(#20,#28,#35,#42,#49,#56,#63,#70));
#20=ORIENTED_EDGE('',*,*,#21,.T.);
#21=EDGE_CURVE('',#22,#24,#26,.T.);
#22=VERTEX_POINT('',#23);
#23=CARTESIAN_POINT('',(-1.240692780974,-1.1,0.64));
#24=VERTEX_POINT('',#25);
#25=CARTESIAN_POINT('',(1.240692780974,-1.1,0.64));
#26=LINE('',#23,#27);
#27=VECTOR('',#14,1.);
#28=ORIENTED_EDGE('',*,*,#29,.T.);
#29=EDGE_CURVE('',#24,#30,#32,.T.);
#30=VERTEX_POINT('',#31);
#31=CARTESIAN_POINT('',(1.45,-0.890692780974,0.64));
#32=CIRCLE('',#33,0.209307219026);
#33=AXIS2_PLACEMENT_3D('',#34,#13,#14);
#34=CARTESIAN_POINT('',(1.240692780974,-0.890692780974,0.64));
#35=ORIENTED_EDGE('',*,*,#36,.T.);
#36=EDGE_CURVE('',#30,#37,#39,.T.);
#37=VERTEX_POINT('',#38);
#38=CARTESIAN_POINT('',(1.45,0.890692780974,0.64));
#39=LINE('',#31,#40);
#40=VECTOR('',#41,1.);
#41=DIRECTION('',(0.,1.,0.));
#42=ORIENTED_EDGE('',*,*,#43,.T.);
#43=EDGE_CURVE('',#37,#44,#46,.T.);
#44=VERTEX_POINT('',#45);
#45=CARTESIAN_POINT('',(1.240692780974,1.1,0.64));
#46=CIRCLE('',#47,0.209307219026);
#47=AXIS2_PLACEMENT_3D('',#48,#13,#14);
#48=CARTESIAN_POINT('',(1.240692780974,0.890692780974,0.64));
#49=ORIENTED_EDGE('',*,*,#50,.T.);
#50=EDGE_CURVE('',#44,#51,#53,.T.);
#51=VERTEX_POINT('',#52);
#52=CARTESIAN_POINT('',(-1.240692780974,1.1,0.64));
#53=LINE('',#45,#54);
#54=VECTOR('',#55,1.);
#55=DIRECTION('',(-1.,0.,0.));
#56=ORIENTED_EDGE('',*,*,#57,.T.);
#57=EDGE_CURVE('',#51,#58,#60,.T.);
#58=VERTEX_POINT('',#59);
#59=CARTESIAN_POINT('',(-1.45,0.890692780974,0.64));
#60=CIRCLE('',#61,0.209307219026);
#61=AXIS2_PLACEMENT_3D('',#62,#13,#14);
#62=CARTESIAN_POINT('',(-1.240692780974,0.890692780974,0.64));
#63=ORIENTED_EDGE('',*,*,#64,.T.);
#64=EDGE_CURVE('',#58,#65,#67,.T.);
#65=VERTEX_POINT('',#66);
#66=CARTESIAN_POINT('',(-1.45,-0.890692780974,0.64));
#67=LINE('',#59,#68);
#68=VECTOR('',#69,1.);
#69=DIRECTION('',(0.,-1.,0.));
#70=ORIENTED_EDGE('',*,*,#71,.T.);
#71=EDGE_CURVE('',#65,#22,#72,.T.);
#72=CIRCLE('',#73,0.209307219026);
#73=AXIS2_PLACEMENT_3D('',#74,#13,#14);
#74=CARTESIAN_POINT('',(-1.240692780974,-0.890692780974,0.64));
#75=PLANE('',#76);
#76=AXIS2_PLACEMENT_3D('',#77,#13,#41);
#77=CARTESIAN_POINT('',(-2.542317729478E-17,5.649594954397E-18,0.64));
#78=ADVANCED_FACE('',(#79),#95,.F.);
#79=FACE_BOUND('',#80,.F.);
#80=EDGE_LOOP('',(#81,#20,#87,#92));
#81=ORIENTED_EDGE('',*,*,#82,.T.);
#82=EDGE_CURVE('',#83,#22,#85,.T.);
#83=VERTEX_POINT('',#84);
#84=CARTESIAN_POINT('',(-1.240692780974,-1.1,0.54));
#85=LINE('',#84,#86);
#86=VECTOR('',#13,1.);
#87=ORIENTED_EDGE('',*,*,#88,.F.);
#88=EDGE_CURVE('',#89,#24,#91,.T.);
#89=VERTEX_POINT('',#90);
#90=CARTESIAN_POINT('',(1.240692780974,-1.1,0.54));
#91=LINE('',#90,#86);
#92=ORIENTED_EDGE('',*,*,#93,.F.);
#93=EDGE_CURVE('',#83,#89,#94,.T.);
#94=LINE('',#84,#27);
#95=PLANE('',#96);
#96=AXIS2_PLACEMENT_3D('',#84,#41,#14);
#97=ADVANCED_FACE('',(#98),#111,.T.);
#98=FACE_BOUND('',#99,.F.);
#99=EDGE_LOOP('',(#100,#28,#101,#106));
#100=ORIENTED_EDGE('',*,*,#88,.T.);
#101=ORIENTED_EDGE('',*,*,#102,.F.);
#102=EDGE_CURVE('',#103,#30,#105,.T.);
#103=VERTEX_POINT('',#104);
#104=CARTESIAN_POINT('',(1.45,-0.890692780974,0.54));
#105=LINE('',#104,#86);
#106=ORIENTED_EDGE('',*,*,#107,.F.);
#107=EDGE_CURVE('',#89,#103,#108,.T.);
#108=CIRCLE('',#109,0.209307219026);
#109=AXIS2_PLACEMENT_3D('',#110,#13,#14);
#110=CARTESIAN_POINT('',(1.240692780974,-0.890692780974,0.54));
#111=CYLINDRICAL_SURFACE('',#112,0.209307219026);
#112=AXIS2_PLACEMENT_3D('',#110,#113,#14);
#113=DIRECTION('',(-0.,-0.,-1.));
#114=ADVANCED_FACE('',(#115),#126,.F.);
#115=FACE_BOUND('',#116,.F.);
#116=EDGE_LOOP('',(#117,#35,#118,#123));
#117=ORIENTED_EDGE('',*,*,#102,.T.);
#118=ORIENTED_EDGE('',*,*,#119,.F.);
#119=EDGE_CURVE('',#120,#37,#122,.T.);
#120=VERTEX_POINT('',#121);
#121=CARTESIAN_POINT('',(1.45,0.890692780974,0.54));
#122=LINE('',#121,#86);
#123=ORIENTED_EDGE('',*,*,#124,.F.);
#124=EDGE_CURVE('',#103,#120,#125,.T.);
#125=LINE('',#104,#40);
#126=PLANE('',#127);
#127=AXIS2_PLACEMENT_3D('',#104,#55,#41);
#128=ADVANCED_FACE('',(#129),#142,.T.);
#129=FACE_BOUND('',#130,.F.);
#130=EDGE_LOOP('',(#131,#42,#132,#137));
#131=ORIENTED_EDGE('',*,*,#119,.T.);
#132=ORIENTED_EDGE('',*,*,#133,.F.);
#133=EDGE_CURVE('',#134,#44,#136,.T.);
#134=VERTEX_POINT('',#135);
#135=CARTESIAN_POINT('',(1.240692780974,1.1,0.54));
#136=LINE('',#135,#86);
#137=ORIENTED_EDGE('',*,*,#138,.F.);
#138=EDGE_CURVE('',#120,#134,#139,.T.);
#139=CIRCLE('',#140,0.209307219026);
#140=AXIS2_PLACEMENT_3D('',#141,#13,#14);
#141=CARTESIAN_POINT('',(1.240692780974,0.890692780974,0.54));
#142=CYLINDRICAL_SURFACE('',#143,0.209307219026);
#143=AXIS2_PLACEMENT_3D('',#141,#113,#14);
#144=ADVANCED_FACE('',(#145),#156,.F.);
#145=FACE_BOUND('',#146,.F.);
#146=EDGE_LOOP('',(#147,#49,#148,#153));
#147=ORIENTED_EDGE('',*,*,#133,.T.);
#148=ORIENTED_EDGE('',*,*,#149,.F.);
#149=EDGE_CURVE('',#150,#51,#152,.T.);
#150=VERTEX_POINT('',#151);
#151=CARTESIAN_POINT('',(-1.240692780974,1.1,0.54));
#152=LINE('',#151,#86);
#153=ORIENTED_EDGE('',*,*,#154,.F.);
#154=EDGE_CURVE('',#134,#150,#155,.T.);
#155=LINE('',#135,#54);
#156=PLANE('',#157);
#157=AXIS2_PLACEMENT_3D('',#135,#69,#55);
#158=ADVANCED_FACE('',(#159),#172,.T.);
#159=FACE_BOUND('',#160,.F.);
#160=EDGE_LOOP('',(#161,#56,#162,#167));
#161=ORIENTED_EDGE('',*,*,#149,.T.);
#162=ORIENTED_EDGE('',*,*,#163,.F.);
#163=EDGE_CURVE('',#164,#58,#166,.T.);
#164=VERTEX_POINT('',#165);
#165=CARTESIAN_POINT('',(-1.45,0.890692780974,0.54));
#166=LINE('',#165,#86);
#167=ORIENTED_EDGE('',*,*,#168,.F.);
#168=EDGE_CURVE('',#150,#164,#169,.T.);
#169=CIRCLE('',#170,0.209307219026);
#170=AXIS2_PLACEMENT_3D('',#171,#13,#14);
#171=CARTESIAN_POINT('',(-1.240692780974,0.890692780974,0.54));
#172=CYLINDRICAL_SURFACE('',#173,0.209307219026);
#173=AXIS2_PLACEMENT_3D('',#171,#113,#14);
#174=ADVANCED_FACE('',(#175),#186,.F.);
#175=FACE_BOUND('',#176,.F.);
#176=EDGE_LOOP('',(#177,#63,#178,#183));
#177=ORIENTED_EDGE('',*,*,#163,.T.);
#178=ORIENTED_EDGE('',*,*,#179,.F.);
#179=EDGE_CURVE('',#180,#65,#182,.T.);
#180=VERTEX_POINT('',#181);
#181=CARTESIAN_POINT('',(-1.45,-0.890692780974,0.54));
#182=LINE('',#181,#86);
#183=ORIENTED_EDGE('',*,*,#184,.F.);
#184=EDGE_CURVE('',#164,#180,#185,.T.);
#185=LINE('',#165,#68);
#186=PLANE('',#187);
#187=AXIS2_PLACEMENT_3D('',#165,#14,#69);
#188=ADVANCED_FACE('',(#189),#198,.T.);
#189=FACE_BOUND('',#190,.F.);
#190=EDGE_LOOP('',(#191,#70,#192,#193));
#191=ORIENTED_EDGE('',*,*,#179,.T.);
#192=ORIENTED_EDGE('',*,*,#82,.F.);
#193=ORIENTED_EDGE('',*,*,#194,.F.);
#194=EDGE_CURVE('',#180,#83,#195,.T.);
#195=CIRCLE('',#196,0.209307219026);
#196=AXIS2_PLACEMENT_3D('',#197,#13,#14);
#197=CARTESIAN_POINT('',(-1.240692780974,-0.890692780974,0.54));
#198=CYLINDRICAL_SURFACE('',#199,0.209307219026);
#199=AXIS2_PLACEMENT_3D('',#197,#113,#14);
#200=ADVANCED_FACE('',(#201,#251),#253,.T.);
#201=FACE_BOUND('',#202,.T.);
#202=EDGE_LOOP('',(#203,#210,#217,#222,#229,#234,#241,#246));
#203=ORIENTED_EDGE('',*,*,#204,.T.);
#204=EDGE_CURVE('',#205,#207,#209,.T.);
#205=VERTEX_POINT('',#206);
#206=CARTESIAN_POINT('',(-1.328205850256,-1.2,0.54));
#207=VERTEX_POINT('',#208);
#208=CARTESIAN_POINT('',(1.328205850256,-1.2,0.54));
#209=LINE('',#206,#27);
#210=ORIENTED_EDGE('',*,*,#211,.T.);
#211=EDGE_CURVE('',#207,#212,#214,.T.);
#212=VERTEX_POINT('',#213);
#213=CARTESIAN_POINT('',(1.55,-0.978205850256,0.54));
#214=CIRCLE('',#215,0.221794149744);
#215=AXIS2_PLACEMENT_3D('',#216,#13,#14);
#216=CARTESIAN_POINT('',(1.328205850256,-0.978205850256,0.54));
#217=ORIENTED_EDGE('',*,*,#218,.T.);
#218=EDGE_CURVE('',#212,#219,#221,.T.);
#219=VERTEX_POINT('',#220);
#220=CARTESIAN_POINT('',(1.55,0.978205850256,0.54));
#221=LINE('',#213,#40);
#222=ORIENTED_EDGE('',*,*,#223,.T.);
#223=EDGE_CURVE('',#219,#224,#226,.T.);
#224=VERTEX_POINT('',#225);
#225=CARTESIAN_POINT('',(1.328205850256,1.2,0.54));
#226=CIRCLE('',#227,0.221794149744);
#227=AXIS2_PLACEMENT_3D('',#228,#13,#14);
#228=CARTESIAN_POINT('',(1.328205850256,0.978205850256,0.54));
#229=ORIENTED_EDGE('',*,*,#230,.T.);
#230=EDGE_CURVE('',#224,#231,#233,.T.);
#231=VERTEX_POINT('',#232);
#232=CARTESIAN_POINT('',(-1.328205850256,1.2,0.54));
#233=LINE('',#225,#54);
#234=ORIENTED_EDGE('',*,*,#235,.T.);
#235=EDGE_CURVE('',#231,#236,#238,.T.);
#236=VERTEX_POINT('',#237);
#237=CARTESIAN_POINT('',(-1.55,0.978205850256,0.54));
#238=CIRCLE('',#239,0.221794149744);
#239=AXIS2_PLACEMENT_3D('',#240,#13,#14);
#240=CARTESIAN_POINT('',(-1.328205850256,0.978205850256,0.54));
#241=ORIENTED_EDGE('',*,*,#242,.T.);
#242=EDGE_CURVE('',#236,#243,#245,.T.);
#243=VERTEX_POINT('',#244);
#244=CARTESIAN_POINT('',(-1.55,-0.978205850256,0.54));
#245=LINE('',#237,#68);
#246=ORIENTED_EDGE('',*,*,#247,.T.);
#247=EDGE_CURVE('',#243,#205,#248,.T.);
#248=CIRCLE('',#249,0.221794149744);
#249=AXIS2_PLACEMENT_3D('',#250,#13,#14);
#250=CARTESIAN_POINT('',(-1.328205850256,-0.978205850256,0.54));
#251=FACE_BOUND('',#252,.T.);
#252=EDGE_LOOP('',(#92,#193,#183,#167,#153,#137,#123,#106));
#253=PLANE('',#254);
#254=AXIS2_PLACEMENT_3D('',#255,#13,#14);
#255=CARTESIAN_POINT('',(4.842600293119E-17,-6.544054450161E-18,0.54));
#256=ADVANCED_FACE('',(#257),#275,.F.);
#257=FACE_BOUND('',#258,.F.);
#258=EDGE_LOOP('',(#259,#267,#203,#271));
#259=ORIENTED_EDGE('',*,*,#260,.T.);
#260=EDGE_CURVE('',#261,#263,#265,.T.);
#261=VERTEX_POINT('',#262);
#262=CARTESIAN_POINT('',(1.328205850256,-1.2,0.4));
#263=VERTEX_POINT('',#264);
#264=CARTESIAN_POINT('',(-1.328205850256,-1.2,0.4));
#265=LINE('',#266,#54);
#266=CARTESIAN_POINT('',(-0.663662816971,-1.2,0.4));
#267=ORIENTED_EDGE('',*,*,#268,.T.);
#268=EDGE_CURVE('',#263,#205,#269,.T.);
#269=LINE('',#270,#86);
#270=CARTESIAN_POINT('',(-1.328205850256,-1.2,0.39));
#271=ORIENTED_EDGE('',*,*,#272,.F.);
#272=EDGE_CURVE('',#261,#207,#273,.T.);
#273=LINE('',#274,#86);
#274=CARTESIAN_POINT('',(1.328205850256,-1.2,0.39));
#275=PLANE('',#276);
#276=AXIS2_PLACEMENT_3D('',#270,#41,#14);
#277=ADVANCED_FACE('',(#278),#292,.T.);
#278=FACE_BOUND('',#279,.F.);
#279=EDGE_LOOP('',(#280,#287,#246,#291));
#280=ORIENTED_EDGE('',*,*,#281,.T.);
#281=EDGE_CURVE('',#263,#282,#284,.T.);
#282=VERTEX_POINT('',#283);
#283=CARTESIAN_POINT('',(-1.55,-0.978205850256,0.4));
#284=CIRCLE('',#285,0.221794149744);
#285=AXIS2_PLACEMENT_3D('',#286,#113,#14);
#286=CARTESIAN_POINT('',(-1.328205850256,-0.978205850256,0.4));
#287=ORIENTED_EDGE('',*,*,#288,.T.);
#288=EDGE_CURVE('',#282,#243,#289,.T.);
#289=LINE('',#290,#86);
#290=CARTESIAN_POINT('',(-1.55,-0.978205850256,0.39));
#291=ORIENTED_EDGE('',*,*,#268,.F.);
#292=CYLINDRICAL_SURFACE('',#293,0.221794149744);
#293=AXIS2_PLACEMENT_3D('',#294,#113,#14);
#294=CARTESIAN_POINT('',(-1.328205850256,-0.978205850256,0.39));
#295=ADVANCED_FACE('',(#296),#310,.T.);
#296=FACE_BOUND('',#297,.F.);
#297=EDGE_LOOP('',(#298,#305,#210,#306));
#298=ORIENTED_EDGE('',*,*,#299,.T.);
#299=EDGE_CURVE('',#300,#261,#302,.T.);
#300=VERTEX_POINT('',#301);
#301=CARTESIAN_POINT('',(1.55,-0.978205850256,0.4));
#302=CIRCLE('',#303,0.221794149744);
#303=AXIS2_PLACEMENT_3D('',#304,#113,#14);
#304=CARTESIAN_POINT('',(1.328205850256,-0.978205850256,0.4));
#305=ORIENTED_EDGE('',*,*,#272,.T.);
#306=ORIENTED_EDGE('',*,*,#307,.F.);
#307=EDGE_CURVE('',#300,#212,#308,.T.);
#308=LINE('',#309,#86);
#309=CARTESIAN_POINT('',(1.55,-0.978205850256,0.39));
#310=CYLINDRICAL_SURFACE('',#311,0.221794149744);
#311=AXIS2_PLACEMENT_3D('',#312,#113,#14);
#312=CARTESIAN_POINT('',(1.328205850256,-0.978205850256,0.39));
#313=ADVANCED_FACE('',(#314),#327,.F.);
#314=FACE_BOUND('',#315,.F.);
#315=EDGE_LOOP('',(#316,#322,#241,#326));
#316=ORIENTED_EDGE('',*,*,#317,.T.);
#317=EDGE_CURVE('',#282,#318,#320,.T.);
#318=VERTEX_POINT('',#319);
#319=CARTESIAN_POINT('',(-1.55,0.978205850256,0.4));
#320=LINE('',#321,#40);
#321=CARTESIAN_POINT('',(-1.55,0.488660386396,0.4));
#322=ORIENTED_EDGE('',*,*,#323,.T.);
#323=EDGE_CURVE('',#318,#236,#324,.T.);
#324=LINE('',#325,#86);
#325=CARTESIAN_POINT('',(-1.55,0.978205850256,0.39));
#326=ORIENTED_EDGE('',*,*,#288,.F.);
#327=PLANE('',#328);
#328=AXIS2_PLACEMENT_3D('',#325,#14,#69);
#329=ADVANCED_FACE('',(#330),#343,.F.);
#330=FACE_BOUND('',#331,.F.);
#331=EDGE_LOOP('',(#332,#338,#217,#339));
#332=ORIENTED_EDGE('',*,*,#333,.T.);
#333=EDGE_CURVE('',#334,#300,#336,.T.);
#334=VERTEX_POINT('',#335);
#335=CARTESIAN_POINT('',(1.55,0.978205850256,0.4));
#336=LINE('',#337,#68);
#337=CARTESIAN_POINT('',(1.55,-0.48954546386,0.4));
#338=ORIENTED_EDGE('',*,*,#307,.T.);
#339=ORIENTED_EDGE('',*,*,#340,.F.);
#340=EDGE_CURVE('',#334,#219,#341,.T.);
#341=LINE('',#342,#86);
#342=CARTESIAN_POINT('',(1.55,0.978205850256,0.39));
#343=PLANE('',#344);
#344=AXIS2_PLACEMENT_3D('',#309,#55,#41);
#345=ADVANCED_FACE('',(#346),#360,.T.);
#346=FACE_BOUND('',#347,.F.);
#347=EDGE_LOOP('',(#348,#355,#234,#359));
#348=ORIENTED_EDGE('',*,*,#349,.T.);
#349=EDGE_CURVE('',#318,#350,#352,.T.);
#350=VERTEX_POINT('',#351);
#351=CARTESIAN_POINT('',(-1.328205850256,1.2,0.4));
#352=CIRCLE('',#353,0.221794149744);
#353=AXIS2_PLACEMENT_3D('',#354,#113,#14);
#354=CARTESIAN_POINT('',(-1.328205850256,0.978205850256,0.4));
#355=ORIENTED_EDGE('',*,*,#356,.T.);
#356=EDGE_CURVE('',#350,#231,#357,.T.);
#357=LINE('',#358,#86);
#358=CARTESIAN_POINT('',(-1.328205850256,1.2,0.39));
#359=ORIENTED_EDGE('',*,*,#323,.F.);
#360=CYLINDRICAL_SURFACE('',#361,0.221794149744);
#361=AXIS2_PLACEMENT_3D('',#362,#113,#14);
#362=CARTESIAN_POINT('',(-1.328205850256,0.978205850256,0.39));
#363=ADVANCED_FACE('',(#364),#378,.T.);
#364=FACE_BOUND('',#365,.F.);
#365=EDGE_LOOP('',(#366,#373,#222,#374));
#366=ORIENTED_EDGE('',*,*,#367,.T.);
#367=EDGE_CURVE('',#368,#334,#370,.T.);
#368=VERTEX_POINT('',#369);
#369=CARTESIAN_POINT('',(1.328205850256,1.2,0.4));
#370=CIRCLE('',#371,0.221794149744);
#371=AXIS2_PLACEMENT_3D('',#372,#113,#14);
#372=CARTESIAN_POINT('',(1.328205850256,0.978205850256,0.4));
#373=ORIENTED_EDGE('',*,*,#340,.T.);
#374=ORIENTED_EDGE('',*,*,#375,.F.);
#375=EDGE_CURVE('',#368,#224,#376,.T.);
#376=LINE('',#377,#86);
#377=CARTESIAN_POINT('',(1.328205850256,1.2,0.39));
#378=CYLINDRICAL_SURFACE('',#379,0.221794149744);
#379=AXIS2_PLACEMENT_3D('',#380,#113,#14);
#380=CARTESIAN_POINT('',(1.328205850256,0.978205850256,0.39));
#381=ADVANCED_FACE('',(#382),#390,.F.);
#382=FACE_BOUND('',#383,.F.);
#383=EDGE_LOOP('',(#384,#388,#229,#389));
#384=ORIENTED_EDGE('',*,*,#385,.T.);
#385=EDGE_CURVE('',#350,#368,#386,.T.);
#386=LINE('',#387,#27);
#387=CARTESIAN_POINT('',(0.664543033285,1.2,0.4));
#388=ORIENTED_EDGE('',*,*,#375,.T.);
#389=ORIENTED_EDGE('',*,*,#356,.F.);
#390=PLANE('',#391);
#391=AXIS2_PLACEMENT_3D('',#377,#69,#55);
#392=ADVANCED_FACE('',(#393,#443),#445,.T.);
#393=FACE_BOUND('',#394,.T.);
#394=EDGE_LOOP('',(#395,#402,#409,#414,#421,#426,#433,#438));
#395=ORIENTED_EDGE('',*,*,#396,.F.);
#396=EDGE_CURVE('',#397,#399,#401,.T.);
#397=VERTEX_POINT('',#398);
#398=CARTESIAN_POINT('',(-1.499580396422,1.249506131818,0.4));
#399=VERTEX_POINT('',#400);
#400=CARTESIAN_POINT('',(1.500419603578,1.249506131818,0.4));
#401=LINE('',#398,#27);
#402=ORIENTED_EDGE('',*,*,#403,.F.);
#403=EDGE_CURVE('',#404,#397,#406,.T.);
#404=VERTEX_POINT('',#405);
#405=CARTESIAN_POINT('',(-1.599300724757,1.149785803483,0.4));
#406=CIRCLE('',#407,0.10000039108);
#407=AXIS2_PLACEMENT_3D('',#408,#13,#14);
#408=CARTESIAN_POINT('',(-1.599580396422,1.249785803483,0.4));
#409=ORIENTED_EDGE('',*,*,#410,.F.);
#410=EDGE_CURVE('',#411,#404,#413,.T.);
#411=VERTEX_POINT('',#412);
#412=CARTESIAN_POINT('',(-1.599300724757,-1.150214196517,0.4));
#413=LINE('',#412,#40);
#414=ORIENTED_EDGE('',*,*,#415,.F.);
#415=EDGE_CURVE('',#416,#411,#418,.T.);
#416=VERTEX_POINT('',#417);
#417=CARTESIAN_POINT('',(-1.500419603578,-1.251333075338,0.4));
#418=CIRCLE('',#419,0.100006259253);
#419=AXIS2_PLACEMENT_3D('',#420,#13,#14);
#420=CARTESIAN_POINT('',(-1.600419603578,-1.250214196517,0.4));
#421=ORIENTED_EDGE('',*,*,#422,.F.);
#422=EDGE_CURVE('',#423,#416,#425,.T.);
#423=VERTEX_POINT('',#424);
#424=CARTESIAN_POINT('',(1.499580396422,-1.251333075338,0.4));
#425=LINE('',#424,#54);
#426=ORIENTED_EDGE('',*,*,#427,.F.);
#427=EDGE_CURVE('',#428,#423,#430,.T.);
#428=VERTEX_POINT('',#429);
#429=CARTESIAN_POINT('',(1.601127668277,-1.149785803483,0.4));
#430=CIRCLE('',#431,0.100011969535);
#431=AXIS2_PLACEMENT_3D('',#432,#13,#14);
#432=CARTESIAN_POINT('',(1.599580396422,-1.249785803483,0.4));
#433=ORIENTED_EDGE('',*,*,#434,.F.);
#434=EDGE_CURVE('',#435,#428,#437,.T.);
#435=VERTEX_POINT('',#436);
#436=CARTESIAN_POINT('',(1.601127668277,1.150214196517,0.4));
#437=LINE('',#436,#68);
#438=ORIENTED_EDGE('',*,*,#439,.F.);
#439=EDGE_CURVE('',#399,#435,#440,.T.);
#440=CIRCLE('',#441,0.100002506747);
#441=AXIS2_PLACEMENT_3D('',#442,#13,#14);
#442=CARTESIAN_POINT('',(1.600419603578,1.250214196517,0.4));
#443=FACE_BOUND('',#444,.T.);
#444=EDGE_LOOP('',(#298,#259,#280,#316,#348,#384,#366,#332));
#445=PLANE('',#446);
#446=AXIS2_PLACEMENT_3D('',#447,#13,#14);
#447=CARTESIAN_POINT('',(8.802163144183E-04,-8.850774637298E-04,0.4));
#448=ADVANCED_FACE('',(#449),#465,.T.);
#449=FACE_BOUND('',#450,.T.);
#450=EDGE_LOOP('',(#451,#456,#457,#462));
#451=ORIENTED_EDGE('',*,*,#452,.T.);
#452=EDGE_CURVE('',#453,#397,#455,.T.);
#453=VERTEX_POINT('',#454);
#454=CARTESIAN_POINT('',(-1.499580396422,1.249506131818,0.));
#455=LINE('',#454,#86);
#456=ORIENTED_EDGE('',*,*,#396,.T.);
#457=ORIENTED_EDGE('',*,*,#458,.F.);
#458=EDGE_CURVE('',#459,#399,#461,.T.);
#459=VERTEX_POINT('',#460);
#460=CARTESIAN_POINT('',(1.500419603578,1.249506131818,0.));
#461=LINE('',#460,#86);
#462=ORIENTED_EDGE('',*,*,#463,.F.);
#463=EDGE_CURVE('',#453,#459,#464,.T.);
#464=LINE('',#454,#27);
#465=PLANE('',#466);
#466=AXIS2_PLACEMENT_3D('',#454,#41,#14);
#467=ADVANCED_FACE('',(#468),#482,.F.);
#468=FACE_BOUND('',#469,.T.);
#469=EDGE_LOOP('',(#470,#475,#476,#477));
#470=ORIENTED_EDGE('',*,*,#471,.T.);
#471=EDGE_CURVE('',#472,#404,#474,.T.);
#472=VERTEX_POINT('',#473);
#473=CARTESIAN_POINT('',(-1.599300724757,1.149785803483,0.));
#474=LINE('',#473,#86);
#475=ORIENTED_EDGE('',*,*,#403,.T.);
#476=ORIENTED_EDGE('',*,*,#452,.F.);
#477=ORIENTED_EDGE('',*,*,#478,.F.);
#478=EDGE_CURVE('',#472,#453,#479,.T.);
#479=CIRCLE('',#480,0.10000039108);
#480=AXIS2_PLACEMENT_3D('',#481,#13,#14);
#481=CARTESIAN_POINT('',(-1.599580396422,1.249785803483,0.));
#482=CYLINDRICAL_SURFACE('',#483,0.10000039108);
#483=AXIS2_PLACEMENT_3D('',#481,#113,#14);
#484=ADVANCED_FACE('',(#485),#499,.F.);
#485=FACE_BOUND('',#486,.T.);
#486=EDGE_LOOP('',(#487,#488,#489,#494));
#487=ORIENTED_EDGE('',*,*,#458,.T.);
#488=ORIENTED_EDGE('',*,*,#439,.T.);
#489=ORIENTED_EDGE('',*,*,#490,.F.);
#490=EDGE_CURVE('',#491,#435,#493,.T.);
#491=VERTEX_POINT('',#492);
#492=CARTESIAN_POINT('',(1.601127668277,1.150214196517,0.));
#493=LINE('',#492,#86);
#494=ORIENTED_EDGE('',*,*,#495,.F.);
#495=EDGE_CURVE('',#459,#491,#496,.T.);
#496=CIRCLE('',#497,0.100002506747);
#497=AXIS2_PLACEMENT_3D('',#498,#13,#14);
#498=CARTESIAN_POINT('',(1.600419603578,1.250214196517,0.));
#499=CYLINDRICAL_SURFACE('',#500,0.100002506747);
#500=AXIS2_PLACEMENT_3D('',#498,#113,#14);
#501=ADVANCED_FACE('',(#502),#514,.T.);
#502=FACE_BOUND('',#503,.T.);
#503=EDGE_LOOP('',(#504,#509,#510,#511));
#504=ORIENTED_EDGE('',*,*,#505,.T.);
#505=EDGE_CURVE('',#506,#411,#508,.T.);
#506=VERTEX_POINT('',#507);
#507=CARTESIAN_POINT('',(-1.599300724757,-1.150214196517,0.));
#508=LINE('',#507,#86);
#509=ORIENTED_EDGE('',*,*,#410,.T.);
#510=ORIENTED_EDGE('',*,*,#471,.F.);
#511=ORIENTED_EDGE('',*,*,#512,.F.);
#512=EDGE_CURVE('',#506,#472,#513,.T.);
#513=LINE('',#507,#40);
#514=PLANE('',#515);
#515=AXIS2_PLACEMENT_3D('',#507,#55,#41);
#516=ADVANCED_FACE('',(#517),#529,.T.);
#517=FACE_BOUND('',#518,.T.);
#518=EDGE_LOOP('',(#519,#520,#521,#526));
#519=ORIENTED_EDGE('',*,*,#490,.T.);
#520=ORIENTED_EDGE('',*,*,#434,.T.);
#521=ORIENTED_EDGE('',*,*,#522,.F.);
#522=EDGE_CURVE('',#523,#428,#525,.T.);
#523=VERTEX_POINT('',#524);
#524=CARTESIAN_POINT('',(1.601127668277,-1.149785803483,0.));
#525=LINE('',#524,#86);
#526=ORIENTED_EDGE('',*,*,#527,.F.);
#527=EDGE_CURVE('',#491,#523,#528,.T.);
#528=LINE('',#492,#68);
#529=PLANE('',#530);
#530=AXIS2_PLACEMENT_3D('',#492,#14,#69);
#531=ADVANCED_FACE('',(#532),#546,.F.);
#532=FACE_BOUND('',#533,.T.);
#533=EDGE_LOOP('',(#534,#539,#540,#541));
#534=ORIENTED_EDGE('',*,*,#535,.T.);
#535=EDGE_CURVE('',#536,#416,#538,.T.);
#536=VERTEX_POINT('',#537);
#537=CARTESIAN_POINT('',(-1.500419603578,-1.251333075338,0.));
#538=LINE('',#537,#86);
#539=ORIENTED_EDGE('',*,*,#415,.T.);
#540=ORIENTED_EDGE('',*,*,#505,.F.);
#541=ORIENTED_EDGE('',*,*,#542,.F.);
#542=EDGE_CURVE('',#536,#506,#543,.T.);
#543=CIRCLE('',#544,0.100006259253);
#544=AXIS2_PLACEMENT_3D('',#545,#13,#14);
#545=CARTESIAN_POINT('',(-1.600419603578,-1.250214196517,0.));
#546=CYLINDRICAL_SURFACE('',#547,0.100006259253);
#547=AXIS2_PLACEMENT_3D('',#545,#113,#14);
#548=ADVANCED_FACE('',(#549),#563,.F.);
#549=FACE_BOUND('',#550,.T.);
#550=EDGE_LOOP('',(#551,#552,#553,#558));
#551=ORIENTED_EDGE('',*,*,#522,.T.);
#552=ORIENTED_EDGE('',*,*,#427,.T.);
#553=ORIENTED_EDGE('',*,*,#554,.F.);
#554=EDGE_CURVE('',#555,#423,#557,.T.);
#555=VERTEX_POINT('',#556);
#556=CARTESIAN_POINT('',(1.499580396422,-1.251333075338,0.));
#557=LINE('',#556,#86);
#558=ORIENTED_EDGE('',*,*,#559,.F.);
#559=EDGE_CURVE('',#523,#555,#560,.T.);
#560=CIRCLE('',#561,0.100011969535);
#561=AXIS2_PLACEMENT_3D('',#562,#13,#14);
#562=CARTESIAN_POINT('',(1.599580396422,-1.249785803483,0.));
#563=CYLINDRICAL_SURFACE('',#564,0.100011969535);
#564=AXIS2_PLACEMENT_3D('',#562,#113,#14);
#565=ADVANCED_FACE('',(#566),#574,.T.);
#566=FACE_BOUND('',#567,.T.);
#567=EDGE_LOOP('',(#568,#569,#570,#571));
#568=ORIENTED_EDGE('',*,*,#554,.T.);
#569=ORIENTED_EDGE('',*,*,#422,.T.);
#570=ORIENTED_EDGE('',*,*,#535,.F.);
#571=ORIENTED_EDGE('',*,*,#572,.F.);
#572=EDGE_CURVE('',#555,#536,#573,.T.);
#573=LINE('',#556,#54);
#574=PLANE('',#575);
#575=AXIS2_PLACEMENT_3D('',#556,#69,#55);
#576=ADVANCED_FACE('',(#577),#587,.F.);
#577=FACE_BOUND('',#578,.T.);
#578=EDGE_LOOP('',(#579,#580,#581,#582,#583,#584,#585,#586));
#579=ORIENTED_EDGE('',*,*,#463,.T.);
#580=ORIENTED_EDGE('',*,*,#495,.T.);
#581=ORIENTED_EDGE('',*,*,#527,.T.);
#582=ORIENTED_EDGE('',*,*,#559,.T.);
#583=ORIENTED_EDGE('',*,*,#572,.T.);
#584=ORIENTED_EDGE('',*,*,#542,.T.);
#585=ORIENTED_EDGE('',*,*,#512,.T.);
#586=ORIENTED_EDGE('',*,*,#478,.T.);
#587=PLANE('',#588);
#588=AXIS2_PLACEMENT_3D('',#589,#13,#14);
#589=CARTESIAN_POINT('',(8.802163144183E-04,-8.850774637298E-04,0.));
#590=( GEOMETRIC_REPRESENTATION_CONTEXT(3) GLOBAL_UNCERTAINTY_ASSIGNED_CONTEXT((#594)) GLOBAL_UNIT_ASSIGNED_CONTEXT((#591,#592,#593)) REPRESENTATION_CONTEXT('Context #1','3D Context with UNIT and UNCERTAINTY') );
#591=( LENGTH_UNIT() NAMED_UNIT(*) SI_UNIT(.MILLI.,.METRE.) );
#592=( NAMED_UNIT(*) PLANE_ANGLE_UNIT() SI_UNIT($,.RADIAN.) );
#593=( NAMED_UNIT(*) SI_UNIT($,.STERADIAN.) SOLID_ANGLE_UNIT() );
#594=UNCERTAINTY_MEASURE_WITH_UNIT(LENGTH_MEASURE(1.E-07),#591,'distance_accuracy_value','confusion accuracy');
#595=MECHANICAL_DESIGN_GEOMETRIC_PRESENTATION_REPRESENTATION('',(#596,#604,#605,#606,#607,#608,#609,#610,#611,#612,#620,#621,#622,#623,#624,#625,#626,#627,#628,#636,#637,#638,#639,#640,#641,#642,#643,#644),#590);
#596=STYLED_ITEM('color',(#597),#17);
#597=PRESENTATION_STYLE_ASSIGNMENT((#598));
#598=SURFACE_STYLE_USAGE(.BOTH.,#599);
#599=SURFACE_SIDE_STYLE('',(#600));
#600=SURFACE_STYLE_FILL_AREA(#601);
#601=FILL_AREA_STYLE('',(#602));
#602=FILL_AREA_STYLE_COLOUR('',#603);
#603=COLOUR_RGB('',0.824000000954,0.819999992847,0.78100001812);
#604=STYLED_ITEM('color',(#597),#78);
#605=STYLED_ITEM('color',(#597),#97);
#606=STYLED_ITEM('color',(#597),#114);
#607=STYLED_ITEM('color',(#597),#128);
#608=STYLED_ITEM('color',(#597),#144);
#609=STYLED_ITEM('color',(#597),#158);
#610=STYLED_ITEM('color',(#597),#174);
#611=STYLED_ITEM('color',(#597),#188);
#612=STYLED_ITEM('color',(#613),#200);
#613=PRESENTATION_STYLE_ASSIGNMENT((#614));
#614=SURFACE_STYLE_USAGE(.BOTH.,#615);
#615=SURFACE_SIDE_STYLE('',(#616));
#616=SURFACE_STYLE_FILL_AREA(#617);
#617=FILL_AREA_STYLE('',(#618));
#618=FILL_AREA_STYLE_COLOUR('',#619);
#619=COLOUR_RGB('',0.85900002718,0.737999975681,0.495999991894);
#620=STYLED_ITEM('color',(#613),#256);
#621=STYLED_ITEM('color',(#613),#277);
#622=STYLED_ITEM('color',(#613),#295);
#623=STYLED_ITEM('color',(#613),#313);
#624=STYLED_ITEM('color',(#613),#329);
#625=STYLED_ITEM('color',(#613),#345);
#626=STYLED_ITEM('color',(#613),#363);
#627=STYLED_ITEM('color',(#613),#381);
#628=STYLED_ITEM('color',(#629),#392);
#629=PRESENTATION_STYLE_ASSIGNMENT((#630));
#630=SURFACE_STYLE_USAGE(.BOTH.,#631);
#631=SURFACE_SIDE_STYLE('',(#632));
#632=SURFACE_STYLE_FILL_AREA(#633);
#633=FILL_AREA_STYLE('',(#634));
#634=FILL_AREA_STYLE_COLOUR('',#635);
#635=COLOUR_RGB('',0.159999996424,0.159999996424,0.159999996424);
#636=STYLED_ITEM('color',(#629),#448);
#637=STYLED_ITEM('color',(#629),#467);
#638=STYLED_ITEM('color',(#629),#484);
#639=STYLED_ITEM('color',(#629),#501);
#640=STYLED_ITEM('color',(#629),#516);
#641=STYLED_ITEM('color',(#629),#531);
#642=STYLED_ITEM('color',(#629),#548);
#643=STYLED_ITEM('color',(#629),#565);
#644=STYLED_ITEM('color',(#629),#576);
ENDSEC;
END-ISO-10303-21;
